<svg xmlns="http://www.w3.org/2000/svg" width="616" height="616" version="1" viewBox="0 0 462 462">
    <path d="M209.8.7l-4.8.4v23.6l-3.7.7c-2.1.3-4.3.6-5 .6-.7 0-2.3-4.9-3.8-11.5-1.9-8-3.1-11.5-4.1-11.5-4.2 0-44.7 10.1-46.2 11.4-.1.2.9 5 2.3 10.7 1.4 5.7 2.5 11.1 2.5 11.9 0 .9-1.9 2.2-4.5 3.2l-4.6 1.6L133 32c-2.7-5.4-5.4-10.2-6.1-10.5-2-1.3-42.9 20-42.9 22.4 0 1 28.9 56.3 30 57.5.5.5 4-1.1 8.2-3.7 21.7-13.5 46.2-23 71.8-28 9.9-1.9 14.8-2.2 36-2.2 26.9 0 34.1.9 54.5 6.6 19.1 5.4 34.5 12.1 51.5 22.4 5 3 9.5 5.3 10 5 .5-.3 5.2-9 10.6-19.3 5.3-10.3 12.1-23.2 15-28.8l5.4-10-11.8-6.6C352.1 29.4 335.5 21 334.1 21c-.5 0-3.4 4.5-6.3 10s-5.9 10-6.6 10c-2.5 0-8.2-2.9-8.2-4.2 0-.7 1.1-5.6 2.5-10.8 1.4-5.2 2.5-10 2.5-10.6C318 13.6 278.4 3 271.6 3c-.9 0-2.1 3.5-3.6 10.5-1.3 5.8-2.7 10.9-3 11.5-.4.6-2.5.8-5.3.4l-4.7-.7V1.3l-6.7-.6c-6.9-.7-29.9-.6-38.5 0zM241 25.5c0 8.4.3 11.7 1.3 11.9.6.2 8 1.1 16.2 2.1 8.3.9 15.4 1.8 15.9 1.9.5 0 2.1-4.8 3.6-10.7 1.6-6 3-11.1 3.3-11.4.9-.9 19.9 4.1 20.4 5.3.2.6-.8 5.7-2.2 11.4-1.4 5.6-2.3 10.5-2 10.8.3.3 6.7 2.9 14.3 5.8 7.5 2.8 14.4 5.4 15.2 5.8 1.2.5 2.9-1.9 7-9.8l5.5-10.4L349 43c5.9 3 9.4 5.3 9.2 6.2-.2.7-4.2 8.6-8.8 17.5L340.9 83l-12.2-6.2c-63.2-31.7-134.7-31.4-198.1.7-6 3-11 5.4-11.1 5.3-1.6-1.8-17.5-33.5-17.2-34.3.3-.6 4.7-3.2 9.8-5.8l9.3-4.7 5.4 10.3c3 5.6 5.6 10.3 5.6 10.4.4.6 31.1-11.6 31.3-12.4.2-.6-.8-5.7-2.2-11.3-2.1-8.1-2.3-10.5-1.3-11.1 1.9-1.2 18.8-5.2 19.4-4.6.3.3 1.7 5 3 10.4 1.4 5.4 2.6 10.3 2.9 10.9.2.8 2 .9 6.2.2 3.2-.5 10.8-1.5 16.8-2.1l11-1.2.3-11.8.3-11.7H241v11.5z"/>
    <path d="M210.1 81.1c-34.4 3.6-68.6 17.3-96.6 38.8-8.5 6.5-24.7 22.3-31.8 31.1-31.6 39.2-46.7 89.5-41.6 139.1 7.5 74.1 57.2 136.9 127.5 161.2 69 23.9 146.2 6.2 197.4-45.3 68.6-68.9 74.6-178.2 14-253.9-40.7-50.8-104.6-77.7-168.9-71zm37 13.9c61.9 6.3 115.9 44.4 142.5 100.5 32 67.4 18.1 147.6-34.7 200.4-23.7 23.7-53.8 40.3-86.2 47.5-56.6 12.7-114.5-2.7-157.7-41.7-21.3-19.4-40.1-48.2-48.9-75.2-19.9-61.4-6-126.7 37.2-174.5 24.3-26.7 59.4-46.8 94.6-54 18.7-3.8 35.6-4.7 53.2-3z"/>
    <path d="M218.1 132.6c-21.9 4.7-39.5 22.1-44.7 44.2-3.2 13.3-.4 29.9 7 42.6 2.9 5 2.9 5 8.7.4l3.6-2.9-3.3-6.6c-15.3-30.5 6.3-66.3 40-66.3 8.3 0 17.1 2.3 23.8 6.3 6.5 3.8 14.5 12.8 18.1 20.4 5.6 12.2 4.9 29.3-1.9 41-1.3 2.3-2.4 4.4-2.4 4.7 0 .3 2.1 2.1 4.7 4.1 5.5 4.2 5.3 4.3 10.3-5.6 4-7.8 6-16.4 6-25.6 0-37-34-64.5-69.9-56.7z"/>
    <path d="M217.4 163.3c-11.8 5.7-17 14.6-18.1 31l-.6 10.7h4.1c3.9 0 4.2.2 4.2 2.7 0 8.2 5.8 16.9 13.5 20.4 5.2 2.4 13.8 2.4 19 0 7.2-3.3 11.4-9.5 13-18.9.6-4 .9-4.2 4.1-4.2h3.4v-9.4c0-12-2-18.2-7.8-24.7-6.4-7.1-10.9-9.2-21.2-9.6-7.4-.4-9.2-.1-13.6 2zm20.6 12.2c2.8 1.5 6.2 5 7.9 8.2.6 1.2 1.1 6.4 1.1 11.7 0 9-.1 9.5-2.2 9.8-1.8.2-2.4 1.2-3 4.8-1.4 8.4-9.8 13-17.2 9.5-4.2-2-5.8-4.4-6.5-10-.5-3.5-1-4-3.3-4.3l-2.8-.3v-8.8c0-7.3.4-9.5 2.3-13.2 4.5-8.4 15.1-11.7 23.7-7.4zM192.1 239.5c-10.1 4.2-13.2 6.9-17.2 15.1-2.6 5.3-3.3 8.4-5.1 25-1.6 14.2-2.5 19.2-3.7 20.1-.9.7-4.3 1.3-7.6 1.3h-6v-11.8c0-9.8-.4-12.6-2.3-17.2-4.5-11.1-14.1-20.8-25.2-25.2-4.6-1.9-7.5-2.3-17-2.3-10.9 0-11.9.2-18.2 3.2-28.7 13.6-35.4 50.5-13.2 72.7 5.7 5.6 14.5 10.7 21.4 12.1 1.9.4 17.5 2.2 34.5 3.9l31 3.1-.2 4.5c-.5 7.9-3.4 24.1-7 38.7-1.9 7.9-3.2 14.7-2.8 15.3.5.9 10.6 4.3 11.1 3.7 1-1.2 7.8-32.2 9.5-43.2 1.1-7.7 2.2-15 2.5-16.2.4-1.9 12.2-12.9 13-12 .2.2-.1 18.2-.7 40.1-.7 21.8-.9 39.9-.6 40.2.3.3 5 1.3 10.4 2.2 17.5 2.8 57.9 2 72.2-1.5l2.3-.6-.6-30.1c-.3-16.6-.9-34.8-1.2-40.5l-.7-10.4 2.9 2.1c1.6 1.1 4.7 3.8 7 5.9 3.8 3.5 4.2 4.3 4.9 10.8 1.3 12.3 9.4 51.4 11 53.3.8.9 11.5-3.3 11.5-4.5 0-.7-1.1-5.7-2.5-11-4.4-16.9-9.3-46.2-7.8-46.4.4 0 13.6-1.2 29.3-2.7l28.5-2.7.3-10.5.3-10.6 15.4-15.4 15.5-15.5v9.5h9v-25h-4.2c-2.4 0-8-.3-12.5-.7l-8.3-.6v9.3h4c2.2 0 4 .3 4 .8 0 .4-5.2 5.9-11.5 12.2L356 299.5v-41.9l3 2.9 3 2.9 3.3-3.2 3.2-3.2-8.8-8.7-8.7-8.8-8.7 8.8-8.8 8.7 3.2 3.2 3.3 3.2 3-2.9 3-2.9v41.9l-12-12-12.1-12 4.6-.3 4.5-.3V266h-25v25h8.9l.3-4 .3-4.1 9 9.1 9 9h-19.1c-24.3 0-22.5 1.6-24.8-21.3-2.7-27.1-6.5-33.7-23.1-40.3-9.2-3.6-9.5-3.7-15.2-2.5-9.1 1.9-26.9 2.5-35.8 1.1-15-2.2-14.5-2.2-23.4 1.5zm73.4 13c7.4 3.5 9.9 8.8 11.5 24 .6 6 1.3 12.1 1.6 13.4l.5 2.3-12.3-.4c-18.9-.6-21-2-41.4-26.8l-11.1-13.6 15.6-.1c8.6 0 17.6-.5 20.1-1.1 5.7-1.3 8.7-.9 15.5 2.3zm-61.6 5.1c2.9 3.6 5.1 6.7 4.9 6.8-.1.1-6.3 5.3-13.5 11.4-9.1 7.7-13.3 10.7-13.3 9.5.1-1 .7-6.6 1.4-12.5 1.6-12.6 3.8-17.1 10-19.9 2.3-1 4.4-1.9 4.7-1.9.3 0 2.9 3 5.8 6.6zm-81.8 1.6c15.1 7 22.7 24.8 16.9 40-2.8 7.5-9.6 15-16.8 18.5-7.6 3.7-19 3.9-26.8.5-6.4-2.9-13.6-10.2-16.6-16.7-3.1-6.8-3.2-18.9-.1-25.6 3.8-8.6 11.7-15.6 20.6-18.5 6.2-2 16.3-1.2 22.8 1.8zm108.8 31.1c6.7 7 13.2 10.9 21.8 13.1l4.8 1.2.6 20c.4 10.9 1 32.4 1.3 47.6l.8 27.7-3.9.8c-5 1-48.9 1-52.7 0l-2.9-.8.6-27.2c.4-15 1-40.7 1.3-57.3l.7-30 6.6-5.7 6.6-5.7 4 4.7c2.2 2.6 6.9 7.8 10.4 11.6zM190 304.8v7.8l-9 7.5-8.9 7.5-16.8-1.7c-9.2-1-17.2-1.8-17.6-1.8-.5-.1 1.1-2.3 3.5-5.1l4.3-4.9 12-.1 12-.1 10-8.4c5.4-4.7 10.1-8.5 10.2-8.5.2 0 .3 3.5.3 7.8zm97 4.7l5.1 4.5H343v9l-3.7.1c-2.1 0-14.3 1-27.1 2.3l-23.3 2.2-11.2-9.4c-17.4-14.6-16.8-13.2-5.5-13.2h9.7l5.1 4.5z"/>
    <path d="M100 288.5v8.5h17v-17h-17v8.5z"/>
</svg>
