<svg xmlns="http://www.w3.org/2000/svg" xmlns:xlink="http://www.w3.org/1999/xlink" width="496" height="279" viewBox="0 0 496 279">
  <defs>
    <path id="oslo-logo-a" d="M29.0272,66.3096 C44.6122,66.3096 57.3252,53.7716 57.3252,32.8746 C57.3252,12.6736 44.6122,0.3096 29.0272,0.3096 C13.3542,0.3096 0.6422,12.6736 0.6422,32.8746 C0.6422,53.7716 13.3542,66.3096 29.0272,66.3096 M29.0272,58.9086 C18.0562,58.9086 8.8262,50.2886 8.8262,32.8746 C8.8262,15.4596 17.7952,7.7106 29.0272,7.7106 C40.2592,7.7106 49.1402,15.4596 49.1402,32.8746 C49.1402,50.2886 39.9112,58.9086 29.0272,58.9086 M66.5552,31.6556 C66.5552,38.0116 71.1702,42.3656 79.7022,44.1066 L87.6262,45.6736 C92.9372,46.8056 95.2012,48.8956 95.2012,52.7266 C95.2012,57.0806 90.7602,59.9536 84.1432,59.9536 C77.6122,59.9536 72.9982,57.4286 70.6472,52.7266 L64.9002,55.7746 C68.2092,62.5656 74.9132,66.2226 84.3172,66.2226 C95.1142,66.2226 102.5152,60.5626 102.5152,52.2916 C102.5152,45.3256 97.6392,40.8846 87.6262,38.8826 L80.9222,37.5766 C75.9582,36.5316 73.6942,34.5286 73.6942,31.1326 C73.6942,27.2146 77.6122,24.8636 83.6212,24.8636 C89.1932,24.8636 93.4602,27.1276 95.3752,31.2206 L101.0352,28.3466 C98.5972,22.2516 92.3282,18.5076 83.7082,18.5076 C73.6082,18.5076 66.5552,24.1676 66.5552,31.6556 M129.8562,65.2656 L129.8562,58.9086 C128.8982,59.1696 127.9402,59.2566 127.0692,59.2566 C123.4122,59.2566 121.2352,57.2546 121.2352,53.3366 L121.2352,1.0936 L113.7472,1.0936 L113.7472,53.5976 C113.7472,61.0856 117.4912,65.8746 125.3282,65.8746 C126.8952,65.8746 128.2882,65.7006 129.8562,65.2656 M157.6312,66.3096 C169.2982,66.3096 178.7022,56.9066 178.7022,42.2786 C178.7022,27.9116 169.3862,18.5076 157.6312,18.5076 C145.8772,18.5076 136.5602,27.9116 136.5602,42.2786 C136.5602,56.9066 145.9642,66.3096 157.6312,66.3096 M157.6312,59.7796 C150.3172,59.7796 144.3092,54.0326 144.3092,42.2786 C144.3092,30.6106 150.4042,25.0386 157.6312,25.0386 C164.8582,25.0386 170.9532,30.6106 170.9532,42.2786 C170.9532,54.0326 164.9452,59.7796 157.6312,59.7796"/>
    <path id="oslo-logo-c" d="M82.3939,35.5116 C128.2789,35.5116 164.7879,70.2246 164.7879,117.6056 C164.7879,164.9876 128.2789,199.9996 82.3939,199.9996 C36.5089,199.9996 -0.0001,164.9876 -0.0001,117.6056 C-0.0001,70.2246 36.5089,35.5116 82.3939,35.5116 Z M82.3939,193.0176 C124.2899,193.0176 157.6059,161.4966 157.6059,117.6056 C157.6059,73.7156 124.2899,42.3936 82.3939,42.3936 C40.4989,42.3936 7.1819,73.7156 7.1819,117.6056 C7.1819,161.4966 40.4989,193.0176 82.3939,193.0176 Z M142.0673,113.98 L153.0403,113.98 L153.0403,124.953 L149.3493,124.953 L149.7473,119.777 L136.7033,133.114 C136.7553,135.093 136.8263,137.149 136.7583,139.252 C136.6583,141.845 135.2613,142.943 132.1693,143.242 L112.3343,145.42 C113.8643,154.836 115.6723,162.879 118.0043,169.876 L112.2193,172.868 C109.8463,165.748 108.1953,157.725 106.6663,145.96 L100.6973,139.345 L101.2473,176.16 C90.4743,179.252 77.7063,179.252 65.8353,176.658 L66.5713,139.912 L61.1143,145.96 C59.5853,157.725 57.9343,165.748 55.5613,172.868 L49.7753,169.876 C52.1043,162.891 53.9103,154.862 55.4383,145.466 L46.2843,144.539 C38.7103,143.755 31.7453,142.364 28.1713,141.559 C19.2113,139.966 12.2693,131.909 12.2693,122.095 C12.2693,111.122 20.9473,102.543 31.4213,102.543 C41.8953,102.543 50.5733,111.122 50.5733,122.095 C50.5733,124.688 50.0333,127.167 49.0813,129.439 L56.3933,129.183 L58.5533,113.117 C59.3513,107.531 61.8453,104.938 65.3363,103.541 C67.1323,102.843 69.4263,102.045 70.9223,101.446 C72.0203,101.047 72.3193,100.948 73.2173,101.147 C74.0153,101.347 79.6013,102.743 83.5913,102.743 C87.5813,102.743 93.1673,101.347 93.9653,101.147 C94.8623,100.948 95.1623,101.047 96.2593,101.446 C97.7553,102.045 100.0493,102.843 101.8453,103.541 C105.3363,104.938 108.0303,107.531 108.6283,113.117 L110.4883,129.202 L118.8033,129.376 C122.5263,129.43 125.8533,129.682 128.9493,129.92 L119.0823,119.777 L119.4813,124.953 L115.7903,124.953 L115.7903,113.98 L126.7623,113.98 L126.7623,117.671 L121.6503,117.348 L132.4683,128.379 L132.4683,108.905 L129.0773,112.818 L126.4833,110.225 L134.2643,102.444 L142.0443,110.225 L139.4513,112.818 L136.0603,108.905 L136.0603,128.678 L147.1783,117.348 L142.0673,117.671 L142.0673,113.98 Z M71.5213,171.771 C79.1023,173.267 88.6783,172.968 95.6613,171.471 L95.6613,130.579 C89.9173,130.598 87.5883,129.461 84.8873,126.085 L77.6413,117.141 L71.5213,122.217 L71.5213,171.771 Z M59.4513,140.748 L66.6953,133.721 L66.8483,126.093 L57.3563,133.965 L46.4503,133.965 C44.6833,136.271 42.4533,138.185 39.9773,139.55 L59.4513,140.748 Z M17.9553,122.294 C17.9553,130.574 23.5413,136.559 31.4213,136.559 C39.3013,136.559 44.8873,130.574 44.8873,122.294 C44.8873,114.115 39.3013,107.831 31.4213,107.831 C23.5413,107.831 17.9553,114.115 17.9553,122.294 Z M69.4263,107.631 C65.9353,109.327 64.8373,110.823 64.2393,114.414 L62.5133,124.152 L74.8733,113.725 L69.7923,107.455 C69.6723,107.51 69.5503,107.569 69.4263,107.631 Z M108.5233,140.918 L132.4683,139.162 L132.4683,133.775 L110.3243,133.965 L106.1473,130.436 L97.8883,130.551 L108.5233,140.918 Z M93.6663,107.232 L83.5913,107.73 L76.3953,107.042 L88.7783,121.995 C90.9723,124.588 91.6703,125.087 95.9603,125.187 L104.7123,125.355 L103.0423,114.414 C102.5443,110.823 101.3463,109.726 97.8553,108.03 C96.4593,107.332 95.3613,107.132 93.6663,107.232 Z M27.032,126.784 L27.032,118.205 L35.81,118.205 L35.81,126.784 L27.032,126.784 Z M82.3937,29.3264 C67.1327,29.3264 51.8707,32.8174 36.8077,41.3964 L23.5417,15.2614 C31.3217,10.8734 36.8077,8.4794 45.2867,5.6864 L49.0777,16.0604 C51.8707,15.1624 54.4637,14.4634 57.1567,13.8654 L54.7627,2.9924 C62.5437,1.2964 70.0247,0.3994 77.6057,0.0004 L78.3037,10.9724 C79.7007,10.8734 81.0967,10.8734 82.3937,10.8734 C83.6907,10.8734 85.0877,10.8734 86.4837,10.9724 L87.1817,0.0004 C94.7627,0.3994 102.2447,1.2964 110.0247,2.9924 L107.6307,13.8654 C110.3237,14.4634 112.9177,15.1624 115.7107,16.0604 L119.5017,5.6864 C127.9797,8.4794 133.4667,10.8734 141.2467,15.2614 L127.9797,41.3964 C112.9177,32.8174 97.6557,29.3264 82.3937,29.3264 Z M41.6957,13.0674 C37.9047,14.3644 34.9127,15.7604 31.6207,17.5564 L39.4017,33.4164 C53.6657,26.6334 68.2297,23.2414 82.3937,23.2414 C96.5587,23.2414 111.1217,26.6334 125.3867,33.4164 L133.1667,17.5564 C129.8757,15.7604 126.8827,14.3644 123.0917,13.0674 L118.9027,22.8424 C112.7177,20.5484 107.2317,18.9524 101.6457,17.9554 L103.3417,7.5814 C99.7507,6.7834 96.0597,6.3844 92.3687,6.0854 L91.1727,16.5584 C87.4817,16.2594 85.3867,16.1594 82.3937,16.1594 C79.4017,16.1594 77.3067,16.2594 73.6157,16.5584 L72.4187,6.0854 C68.7287,6.3844 65.0377,6.7834 61.4457,7.5814 L63.1417,17.9554 C57.5557,18.9524 52.0697,20.5484 45.8847,22.8424 L41.6957,13.0674 Z M67.4315,93.8652 L62.8425,96.0602 C60.9475,92.5682 58.6535,87.1822 58.6535,80.8982 C58.6535,66.5332 70.2245,56.5582 83.5915,56.5582 C96.9575,56.5582 108.5285,66.5332 108.5285,80.8982 C108.5285,87.1822 106.2345,92.5682 104.3395,96.0602 L99.7505,93.8652 C101.2465,90.9722 103.1415,86.2842 103.1415,80.8982 C103.1415,69.2272 94.3645,61.9452 83.5915,61.9452 C72.8175,61.9452 64.0395,69.2272 64.0395,80.8982 C64.0395,86.2842 65.9345,90.9722 67.4315,93.8652 Z M70.8235,82.1941 C70.8235,74.9121 76.0105,69.1271 83.5915,69.1271 C91.1725,69.1271 96.3595,74.9121 96.3595,82.1941 L96.3595,89.0771 L92.7285,89.9491 C92.2335,94.9401 88.3585,98.7531 83.5915,98.7531 C78.8155,98.7531 74.8545,94.9281 74.3535,89.9251 L70.8235,89.0771 L70.8235,82.1941 Z M91.3715,81.9951 C91.3715,77.0071 87.8805,74.2141 83.5915,74.2141 C79.3015,74.2141 75.8105,77.0071 75.8105,81.9951 L75.8105,87.2041 L78.5035,88.0791 L78.5035,88.9771 C78.5035,92.5681 80.6985,94.6631 83.5915,94.6631 C86.3845,94.6631 88.6785,92.5681 88.6785,88.9771 L88.6785,88.0791 L91.3715,87.2041 L91.3715,81.9951 Z"/>
  </defs>
  <g fill="none" fill-rule="evenodd">
    <g transform="translate(267 121)">
      <mask id="oslo-logo-b" fill="#fff">
        <use xlink:href="#oslo-logo-a"/>
      </mask>
      <use fill="#000" xlink:href="#oslo-logo-a"/>
      <g fill="#292858" mask="url(#oslo-logo-b)">
        <rect width="399" height="331" transform="translate(-111 -132)"/>
      </g>
    </g>
    <g transform="translate(49 40)">
      <mask id="oslo-logo-d" fill="#fff">
        <use xlink:href="#oslo-logo-c"/>
      </mask>
      <use fill="#000" xlink:href="#oslo-logo-c"/>
      <g fill="#292858" mask="url(#oslo-logo-d)">
        <rect width="165" height="200"/>
      </g>
    </g>
  </g>
</svg>
