<svg xmlns="http://www.w3.org/2000/svg" width="135" height="78">
    <g fill="#6EE9FF" fill-rule="evenodd">
        <path d="M77.05 52C72.62 52 69 48.4 69 42.37c0-5.81 3.62-9.37 8.05-9.37 4.44 0 8.06 3.56 8.06 9.37 0 6.02-3.62 9.63-8.06 9.63zm0-2.1c3.13 0 5.78-2.51 5.78-7.53 0-5-2.55-7.26-5.78-7.26-3.2 0-5.77 2.25-5.77 7.26 0 5.02 2.65 7.52 5.77 7.52zm10.68-7.88c0-2.15 2.01-3.78 4.91-3.78 2.43 0 4.21 1.08 4.9 2.83l-1.6.83c-.55-1.18-1.74-1.83-3.35-1.83-1.68 0-2.8.68-2.8 1.8 0 .98.62 1.56 2.03 1.86l1.91.37c2.85.58 4.21 1.86 4.21 3.86 0 2.39-2.08 4.01-5.15 4.01-2.68 0-4.58-1.05-5.53-3l1.64-.88c.67 1.35 1.98 2.08 3.84 2.08 1.88 0 3.15-.83 3.15-2.08 0-1.1-.65-1.7-2.16-2.03l-2.25-.45c-2.43-.5-3.75-1.76-3.75-3.59zm18.02 9.7c-.45.1-.84.18-1.29.18-2.23 0-3.3-1.38-3.3-3.53V33.23h2.14v15.04c0 1.15.62 1.7 1.66 1.7.25 0 .52-.03.8-.1v1.85zM114 52c-3.32 0-6.02-2.7-6.02-6.92 0-4.13 2.68-6.84 6.02-6.84 3.32 0 6 2.7 6 6.84 0 4.21-2.7 6.92-6 6.92zm0-1.88c2.08 0 3.8-1.65 3.8-5.04 0-3.38-1.74-4.96-3.8-4.96-2.08 0-3.81 1.58-3.81 4.96 0 3.39 1.7 5.04 3.81 5.04zm-72.03-.89l-2.64-2.6 2.05-.02 1.04.88 5.5-.05v1.35l-5.95.44zm-9.2 7.71V44.56l1.52-1.28 1.8 2.24c.67.84 1.25 1.13 2.68 1.12v10.23a16.2 16.2 0 0 1-6 .07zm-3-7.75l-4.84-.3a5.21 5.21 0 0 0 1.61-1.4h2.71l2.36-1.97-.04 1.91-1.8 1.76zm-10.31-4.62c0-2.04 1.4-3.61 3.35-3.61 1.96 0 3.34 1.57 3.34 3.61 0 2.07-1.38 3.57-3.34 3.57s-3.35-1.5-3.35-3.57zm12.8-3.66l.08-.04 1.26 1.56-3.07 2.6.43-2.43c.15-.9.43-1.27 1.3-1.7zm6.02-.1c.42-.03.69.02 1.04.2.86.42 1.16.7 1.28 1.6l.42 2.73-2.18-.04c-1.06-.03-1.24-.15-1.78-.8l-3.08-3.74 1.8.18 2.5-.13zM50.3 42.5v.92l1.27-.08-2.76 2.83v-4.95l.84.98.64-.65-1.93-1.94-1.93 1.95.64.64.85-.97v4.87l-2.7-2.76 1.28.08v-.92h-2.73v2.74h.92l-.1-1.3 2.45 2.54c-.77-.06-1.6-.12-2.52-.13l-2.06-.05-.46-4.02c-.15-1.4-.82-2.04-1.69-2.4l-1.4-.52c-.26-.1-.34-.13-.56-.07-.2.04-1.59.4-2.58.4s-2.37-.36-2.57-.4c-.23-.06-.3-.03-.57.07l-1.4.53c-.86.35-1.48 1-1.68 2.39l-.54 4.02-1.8.06c.22-.57.36-1.19.36-1.84a4.81 4.81 0 0 0-4.76-4.89 4.81 4.81 0 0 0-4.76 4.9A4.9 4.9 0 0 0 22 49.38c.9.2 2.62.55 4.5.75l2.28.23a39.81 39.81 0 0 1-1.4 6.1l1.43.75c.59-1.78 1-3.79 1.38-6.73l1.35-1.51-.18 9.19c2.95.65 6.12.65 8.8-.13l-.14-9.2 1.49 1.65c.38 2.94.79 4.95 1.38 6.73l1.43-.75a39.72 39.72 0 0 1-1.4-6.11l4.92-.55c.78-.07 1.12-.35 1.15-1 .01-.52 0-1.04-.02-1.53l3.24-3.33-.1 1.29h.92V42.5H50.3zM25.36 17.27l1.04 2.44c1.39-.54 2.83-.94 4.29-1.22l-.42-2.6c.9-.2 1.8-.3 2.73-.37l.3 2.62c1.44-.13 2.9-.13 4.35 0l.3-2.62c.92.08 1.84.18 2.73.38l-.42 2.59c1.46.28 2.9.68 4.28 1.22l1.05-2.44c.94.32 1.68.67 2.5 1.12l-1.93 3.97a24.73 24.73 0 0 0-10.69-2.55c-3.52 0-7.13.85-10.68 2.55l-1.93-3.97c.82-.45 1.56-.8 2.5-1.12zm10.12 4.06c3.79 0 7.58.88 11.32 3.02l3.3-6.54c-1.71-.99-3.52-1.79-5.4-2.38l-.95 2.59c-.7-.23-1.34-.4-2-.55l.6-2.72c-1.88-.4-3.78-.66-5.69-.75l-.17 2.74c-.35-.02-.7-.02-1.02-.02-.32 0-.67 0-1.02.02L34.28 14c-1.88.1-3.74.33-5.67.75l.6 2.72c-.68.15-1.32.32-2.01.55l-.95-2.6c-1.88.6-3.7 1.4-5.4 2.4l3.3 6.53c3.44-2 7.35-3.04 11.32-3.02z"/>
        <path d="M21.72 45.7h2.18v-2.15h-2.18v2.14zm10.04-8.23a7.25 7.25 0 0 1-.85-3.24c0-2.92 2.18-4.74 4.86-4.74s4.86 1.82 4.86 4.74c0 1.34-.47 2.51-.84 3.24l1.14.55a8.09 8.09 0 0 0 1.04-3.8c0-3.59-2.88-6.08-6.2-6.08-3.32 0-6.2 2.5-6.2 6.09 0 1.57.58 2.91 1.05 3.79l1.14-.56z"/>
        <path d="M37.7 34.5v1.3l-.67.22v.22c0 .9-.57 1.42-1.26 1.42-.72 0-1.26-.52-1.26-1.42v-.22l-.67-.22v-1.3c0-1.25.87-1.95 1.93-1.95 1.07 0 1.93.7 1.93 1.95m-5.1.05v1.72l.87.21a2.37 2.37 0 0 0 2.3 2.2c1.19 0 2.15-.95 2.27-2.2l.9-.21v-1.72c0-1.82-1.29-3.27-3.17-3.27s-3.17 1.45-3.17 3.27"/>
        <path d="M35.48 62.26c-10.42 0-18.7-7.88-18.7-18.86 0-10.97 8.28-18.8 18.7-18.8 10.4 0 18.68 7.83 18.68 18.8 0 10.98-8.28 18.85-18.69 18.85m0-39.38C24.07 22.88 15 31.55 15 43.4 15 55.25 24.07 64 35.48 64c11.4 0 20.47-8.75 20.47-20.6 0-11.84-9.07-20.52-20.48-20.52"/>
    </g>
</svg>
