<svg xmlns="http://www.w3.org/2000/svg" id="RGB_Logo_Mørkeblå" fill="#2a2859" data-name="RGB Logo Mørkeblå" viewBox="0 0 457.16 311.17">
  <path d="M180.87 112.76l-2.09-1.34a67.43 67.43 0 0 0-10.16-5.37c-1.48-.62-3-1.2-4.53-1.72a66.79 66.79 0 0 0-11.15-2.76 71.6 71.6 0 0 0-4.86-.59 71.22 71.22 0 0 0-11.5 0 71.6 71.6 0 0 0-4.86.59 66.79 66.79 0 0 0-11.15 2.76c-1.53.52-3 1.1-4.52 1.72H116a67.43 67.43 0 0 0-10.16 5.37l-2.09 1.34-10.38-19.7 1.8-1.06A89.39 89.39 0 0 1 106 86.26l1.94-.87 3.71 7.08c1.05-.42 2.11-.82 3.17-1.21l-1.91-7.76 2-.65a90.4 90.4 0 0 1 11.83-2.92l2.09-.36 1.91 7.75.55-.07q1.41-.19 2.82-.33v-8l2.12-.14a88.27 88.27 0 0 1 12.18 0l2.12.14v8c1.12.11 2.25.25 3.37.4l1.91-7.75 2.09.36a90 90 0 0 1 11.83 2.92l2 .65-1.91 7.76c1.06.39 2.12.79 3.17 1.21l3.71-7.08 1.94.87A89.39 89.39 0 0 1 189.41 92l1.8 1.11zm-81.5-18l6.08 11.58a72.29 72.29 0 0 1 8.74-4.42h.07a76.72 76.72 0 0 1 4.8-1.84A71.81 71.81 0 0 1 131 97.07a74.7 74.7 0 0 1 5.18-.63 73.81 73.81 0 0 1 12.26 0c1.73.15 3.47.36 5.19.63a71.94 71.94 0 0 1 11.89 2.93c1.62.56 3.24 1.18 4.82 1.84a73.17 73.17 0 0 1 8.75 4.42l6.07-11.58a83.7 83.7 0 0 0-6.49-3.43l-3.67 7-1.94-.84-.77-.33a76.98 76.98 0 0 0-5.94-2.23l-2-.66 1.9-7.68a88.27 88.27 0 0 0-7.13-1.76l-1.9 7.68-2.07-.35c-2.36-.4-4.76-.69-7.14-.86l-2.1-.15V83.2a81.67 81.67 0 0 0-7.34 0v7.91l-2.1.15c-1.55.11-3.11.28-4.65.48-.83.12-1.67.24-2.49.38l-2.07.35-1.9-7.68a88.27 88.27 0 0 0-7.13 1.76l1.9 7.68-2 .66c-2 .66-4 1.41-5.94 2.23l-.77.33-1.93.84-3.68-7a92.85 92.85 0 0 0-6.44 3.43z" class="cls-1"/>
  <path d="M142.26 232.59a63.69 63.69 0 1 1 45-18.66 63.27 63.27 0 0 1-45 18.66zm0-122.62a58.95 58.95 0 1 0 41.67 17.27A58.51 58.51 0 0 0 142.26 110z" class="cls-1"/>
  <path d="M130 150.8a15.24 15.24 0 1 1 24.44 0l3.36 2.5a19.22 19.22 0 0 0 3.85-11.6 19.43 19.43 0 1 0-35 11.61z" class="cls-1"/>
  <path d="M142.23 155.45a7.61 7.61 0 0 0 7.6-7.6v-.75h2.5v-4.84a10.1 10.1 0 0 0-20.2 0v4.84h2.51v.75a7.6 7.6 0 0 0 7.59 7.6zm-5.91-13.19a5.91 5.91 0 1 1 11.82 0v4.84h-1.8v.75a4.11 4.11 0 1 1-8.21 0v-.75h-1.81zM98.75 171.81h5.85v5.85h-5.85z" class="cls-1"/>
  <path d="M189.3 167.27v3.14h3l-8.13 8.14v-14.16l2.08 2.09 2.22-2.22-5.87-5.88-5.91 5.91 2.22 2.22 2.12-2.12v14.14l-8.12-8.12h2.95v-3.14h-8.32v8.36h3.15v-3L177 179h-12.76l-1.33-1.19-1.14-10.41c-.06-.56-.68-5.92-5.13-8.21h-.11L152 157.4l-.69-.26-.69.22a31.13 31.13 0 0 1-8.42.92 30.91 30.91 0 0 1-8.41-.92l-.7-.22-5.19 2h-.11c-4.45 2.29-5.07 7.64-5.12 8.21l-1.18 10.78-1 .82h-4.43a15.25 15.25 0 0 0 .61-4.24 15 15 0 1 0-17.3 14.89h.19c.4.06.8.1 1.21.13l19.5 2a108.31 108.31 0 0 1-3.89 19.49l2 .66 2 .65a110.57 110.57 0 0 0 4.07-20.53l4.39-3.72-.67 27.18 1.76.32a72.35 72.35 0 0 0 24.85 0l1.75-.33-.67-27.14 4.41 3.74a110.34 110.34 0 0 0 4.09 20.5l4-1.31a107.56 107.56 0 0 1-3.89-19.47l19.63-1.82v-6.84l10.43-10.44v3h3.14v-8.31zm-47.07-4.81a38.28 38.28 0 0 0 9-.91l3.64 1.39c2.43 1.33 2.77 4.78 2.78 4.81l.9 8.23h-5.07a11.08 11.08 0 0 1-5.82-1.59 17.83 17.83 0 0 1-3.5-3.41l-7.16-8.79a46.62 46.62 0 0 0 5.23.27zm-40.56 23.13h-.53l-1.13-.12a10.85 10.85 0 1 1 1.66.13zm27.33-2.93l-6 5.11-12-1.21a14.73 14.73 0 0 0 3.18-3.41h7.94l7-5.91zm.32-11h-.06l-3.08 2.6.7-6.44v-.06s.34-3.48 2.78-4.81l2-.76 3.59 4.44zm13 41a69.63 69.63 0 0 1-9.82-.7l.22-8.88.71-29.42 4.47-3.76 3 3.69a21.32 21.32 0 0 0 4.61 4.39 14.92 14.92 0 0 0 6 2.09l.78 31.87a70.53 70.53 0 0 1-10.03.7zm37.63-26.55l-18.13 1.69-9-7.63H159.34l3.35 3h17.25zM241.54 166.14c0-15.54 9.78-25 21.77-25s21.76 9.5 21.76 25c0 16.07-9.78 25.71-21.76 25.71s-21.77-9.64-21.77-25.71zm37.37 0c0-13.39-6.9-19.42-15.6-19.42s-15.61 6-15.61 19.42 7.17 20.09 15.61 20.09 15.6-6.7 15.6-20.09zM305.8 155.09c6.56 0 11.38 2.88 13.25 7.57l-4.35 2.21c-1.47-3.15-4.69-4.89-9-4.89-4.55 0-7.57 1.81-7.57 4.82 0 2.61 1.68 4.15 5.5 5l5.15 1c7.7 1.54 11.39 5 11.39 10.31 0 6.36-5.63 10.72-13.93 10.72-7.24 0-12.39-2.82-14.94-8l4.42-2.34C297.49 185 301 187 306.06 187s8.51-2.21 8.51-5.56c0-2.95-1.74-4.56-5.83-5.43l-6.09-1.2c-6.56-1.34-10.11-4.69-10.11-9.58 0-5.79 5.46-10.14 13.26-10.14zM337.74 191.59c-6 0-8.91-3.69-8.91-9.45V141.7h5.76v40.18c0 3.08 1.67 4.55 4.49 4.55a8.26 8.26 0 0 0 2.14-.27v5a15.49 15.49 0 0 1-3.48.43zM346.11 173.37c0-11.05 7.23-18.28 16.27-18.28s16.2 7.23 16.2 18.28c0 11.25-7.3 18.48-16.2 18.48s-16.27-7.23-16.27-18.48zm26.51 0c0-9-4.68-13.26-10.24-13.26s-10.32 4.22-10.32 13.26 4.63 13.46 10.32 13.46 10.24-4.42 10.24-13.46z" class="cls-1"/>
</svg>
